<?xml version="1.0" encoding="utf-8"?>
<svg width="17.38em" height="16.5em" style="margin: auto; margin-top: 10%; vertical-align:-0.22em" viewBox="-50 -25 869 775" xmlns="http://www.w3.org/2000/svg">
  <style>path { fill: none; stroke-width: 5px;}</style>
  <g transform="translate(0,714) scale(1,-1)">
    <path d="M0 -36L0 739" stroke-width="5px" stroke="blue" style="stroke:blue;pointer-events: none;"/>
    <path d="M769 -36L769 739" stroke-width="5px" stroke="blue" style="stroke:blue; fill:none;pointer-events: none;"/>
    <path d="M-25 714L794 714" stroke-width="5px" stroke="blue" style="stroke:blue;pointer-events: none;"/>
    <path d="M-25 -11L794 -11" stroke-width="5px" stroke="blue" style="stroke:blue;pointer-events: none;"/>
    <path d="M-50 0L819 0" stroke-width="5px" stroke="red" style="stroke:red;pointer-events: none;"/>
    <path d="M699 578Q699 473 635 473Q597 473 595 508Q595 559 654 569V576Q654 619 637 648T581 677Q545 677 513 647T463 561Q460 554 437 464T414 371Q414 370 458 370H502Q508 364 508 362Q505 334 495 324H402L382 241Q377 224 373 206T366 180T361 163T358 151T354 142T350 133T344 120Q340 112 338 107T336 101L354 90Q398 63 422 54T476 44Q515 44 539 73T574 133Q578 144 580 146T598 148Q622 148 622 139Q622 138 620 130Q602 74 555 32T447 -11Q395 -11 317 38L294 51Q271 28 233 9T155 -10Q117 -10 103 5T88 39Q88 73 126 106T224 139Q236 139 247 138T266 134L273 132Q275 132 302 239L323 324H259Q253 330 253 332Q253 350 265 370H300L334 371L355 453Q356 457 360 477T366 501T372 522T379 545T387 565T397 587T409 606T425 627Q453 664 497 689T583 714Q640 714 669 676T699 578ZM245 76Q211 85 195 85Q173 85 158 71T142 42Q142 26 160 26H163Q211 30 245 76Z" style="stroke:grey; fill:lightgrey; opacity:0.8;pointer-events: none;"/>
  </g>
</svg>