<?xml version="1.0" encoding="utf-8"?>
<svg width="10.88em" height="11.42em" style="margin: auto; margin-top: 10%; vertical-align:-0.2em" viewBox="-50 -25 544 521" xmlns="http://www.w3.org/2000/svg">
  <style>path { fill: none; stroke-width: 5px;}</style>
  <g transform="translate(0,461) scale(1,-1)">
    <path d="M0 -35L0 486" stroke-width="5px" stroke="blue" style="stroke:blue;pointer-events: none;"/>
    <path d="M444 -35L444 486" stroke-width="5px" stroke="blue" style="stroke:blue; fill:none;pointer-events: none;"/>
    <path d="M-25 461L469 461" stroke-width="5px" stroke="blue" style="stroke:blue;pointer-events: none;"/>
    <path d="M-25 -10L469 -10" stroke-width="5px" stroke="blue" style="stroke:blue;pointer-events: none;"/>
    <path d="M-50 0L494 0" stroke-width="5px" stroke="red" style="stroke:red;pointer-events: none;"/>
    <path d="M28 226Q28 329 91 395T235 461Q258 461 279 456T325 436T368 397T399 332T415 238V219H113V215Q113 163 151 114T248 65Q273 65 298 70T341 82T373 96T396 108L403 113Q403 106 406 76T409 38Q409 34 408 33T393 24Q325 -10 252 -10Q155 -10 92 59T28 226ZM340 289L338 297Q335 305 333 310T327 326T317 343T304 358T286 372T263 381T233 385Q212 385 193 376T162 353T140 325T127 301T123 289H340Z" style="stroke:grey; fill:lightgrey; opacity:0.8;pointer-events: none;"/>
  </g>
  <g transform="translate(0,461) scale(1,-1)" fill="none" stroke="black" stroke-width="20">
    <path style="stroke-width: 11px; stroke: rgb(255, 1, 1);" d="M 75.9 261.009 C 75.9 261.009 382.704 252.357 382.854 261.264 C 384.207 341.678 317.201 432.941 236.806 435.178 C 149.609 437.604 74.525 333.168 72.523 245.96 C 70.2 144.808 136.88 31.761 238.047 30.229 C 310.456 29.133 404.424 77.357 404.424 77.357"/>
  </g>
</svg>