<?xml version="1.0" encoding="utf-8"?>
<svg width="10.88em" height="11.4em" style="margin: auto; margin-top: 10%; vertical-align:-0.2em" viewBox="-50 -25 544 520" xmlns="http://www.w3.org/2000/svg">
  <style>path { fill: none; stroke-width: 5px;}</style>
  <g transform="translate(0,460) scale(1,-1)">
    <path d="M0 -35L0 485" stroke-width="5px" stroke="blue" style="stroke:blue;pointer-events: none;"/>
    <path d="M444 -35L444 485" stroke-width="5px" stroke="blue" style="stroke:blue; fill:none;pointer-events: none;"/>
    <path d="M-25 460L469 460" stroke-width="5px" stroke="blue" style="stroke:blue;pointer-events: none;"/>
    <path d="M-25 -10L469 -10" stroke-width="5px" stroke="blue" style="stroke:blue;pointer-events: none;"/>
    <path d="M-50 0L494 0" stroke-width="5px" stroke="red" style="stroke:red;pointer-events: none;"/>
    <path d="M34 223Q34 327 99 393T245 460Q290 460 301 459Q328 455 354 445T395 427T410 415L396 338L386 344Q377 349 362 357T335 370Q305 381 258 381H252Q182 381 146 315Q126 275 126 224Q126 158 159 113T255 68Q329 68 394 106L408 114L410 93Q411 72 412 52L414 32Q407 27 394 20T338 2T252 -10Q156 -10 95 58T34 223Z" style="stroke:grey; fill:lightgrey; opacity:0.8;pointer-events: none;"/>
  </g>
  <g transform="translate(0,460) scale(1,-1)" fill="none" stroke="black" stroke-width="20">
    <path d="M 400.34 383.958 C 224.131 474.509 69.728 406.822 71.978 225.315 C 74.977 -16.602 311.063 1.627 409.603 77.698" style="fill: none; stroke: rgb(255, 0, 0); stroke-width: 1px;"/>
  </g>
</svg>