<?xml version="1.0" encoding="utf-8"?>
<svg width="8.12em" height="16.1em" style="margin: auto; margin-top: 10%" viewBox="-50 -25 406 755" xmlns="http://www.w3.org/2000/svg">
  <style>path { fill: none; stroke-width: 5px;}</style>
  <g transform="translate(0,705) scale(1,-1)">
    <path d="M0 -25L0 730" stroke-width="5px" stroke="blue" style="stroke:blue;pointer-events: none;"/>
    <path d="M306 -25L306 730" stroke-width="5px" stroke="blue" style="stroke:blue; fill:none;pointer-events: none;"/>
    <path d="M-25 705L331 705" stroke-width="5px" stroke="blue" style="stroke:blue;pointer-events: none;"/>
    <path d="M-25 0L331 0" stroke-width="5px" stroke="blue" style="stroke:blue;pointer-events: none;"/>
    <path d="M-50 0L356 0" stroke-width="5px" stroke="red" style="stroke:red;pointer-events: none;"/>
    <path d="M262 705H267Q300 705 347 694V612L336 616Q303 628 274 628H266Q224 628 199 605Q187 590 184 579T181 541V507V444H287V371H184V0H94V371H27V444H94V492Q94 544 95 550Q102 617 151 661T262 705Z" style="stroke:grey; fill:lightgrey; opacity:0.8;pointer-events: none;"/>
  </g>
  <g transform="translate(0,705) scale(1,-1)" fill="none" stroke="black" stroke-width="20">
    <path d="M 346 655.883 C 189.235 702.503 145.081 617.526 143.532 553.385 C 143.11 535.893 137.071 91.588 138.879 3.52" style="stroke: rgb(203, 33, 33); fill: none; stroke-width: 29px;"/>
    <path d="M 29.655 409.245 C 119.603 409.245 195.521 409.323 285.565 409.323" style="stroke: rgb(203, 33, 33); fill: none; stroke-width: 29px;"/>
  </g>
</svg>