<?xml version="1.0" encoding="utf-8"?>
<svg width="12.34em" height="16.1em" style="margin: auto; margin-top: 10%; vertical-align:-0.22em" viewBox="-50 -25 617 755" xmlns="http://www.w3.org/2000/svg">
  <style>path { fill: none; stroke-width: 5px;}</style>
  <g transform="translate(0,694) scale(1,-1)">
    <path d="M0 -36L0 719" stroke-width="5px" stroke="blue" style="stroke:blue;pointer-events: none;"/>
    <path d="M517 -36L517 719" stroke-width="5px" stroke="blue" style="stroke:blue; fill:none;pointer-events: none;"/>
    <path d="M-25 694L542 694" stroke-width="5px" stroke="blue" style="stroke:blue;pointer-events: none;"/>
    <path d="M-25 -11L542 -11" stroke-width="5px" stroke="blue" style="stroke:blue;pointer-events: none;"/>
    <path d="M-50 0L567 0" stroke-width="5px" stroke="red" style="stroke:red;pointer-events: none;"/>
    <path d="M303 -11Q280 -11 259 -6T222 6T194 21T176 33T168 38V0H75V694H165V550L166 405Q247 455 336 455Q397 455 439 389T482 226Q482 115 428 52T303 -11ZM390 221Q390 283 361 331T265 379Q214 379 177 342L168 334V118Q203 66 258 66Q316 66 353 106T390 221Z" style="stroke:grey; fill:lightgrey; opacity:0.8;pointer-events: none;"/>
  </g>
  <g transform="translate(0,694) scale(1,-1)" fill="none" stroke="black" stroke-width="20">
    <path d="M 118.756 691.217 C 118.756 625.993 114.967 448.997 115.386 385.332 C 115.867 312.271 115.157 131.007 115.157 9.574" style="fill: none; stroke: rgb(255, 0, 0); stroke-width: 1px;"/>
    <path d="M 118.756 350.996 C 151.33 373.1 227.031 406.786 239.519 411.291 C 310.037 436.885 428.123 414.249 445.688 272.775 C 467.071 100.551 341.059 -83.796 118.756 110.375" style="fill: none; stroke: rgb(255, 0, 0); stroke-width: 1px;"/>
  </g>
</svg>