<?xml version="1.0" encoding="utf-8"?>
<svg width="12.34em" height="16.08em" style="margin: auto; margin-top: 10%; vertical-align:-0.2em" viewBox="-50 -25 617 754" xmlns="http://www.w3.org/2000/svg">
  <style>path { fill: none; stroke-width: 5px;}</style>
  <g transform="translate(0,694) scale(1,-1)">
    <path d="M0 -35L0 719" stroke-width="5px" stroke="blue" style="stroke:blue;pointer-events: none;"/>
    <path d="M517 -35L517 719" stroke-width="5px" stroke="blue" style="stroke:blue; fill:none;pointer-events: none;"/>
    <path d="M-25 694L542 694" stroke-width="5px" stroke="blue" style="stroke:blue;pointer-events: none;"/>
    <path d="M-25 -10L542 -10" stroke-width="5px" stroke="blue" style="stroke:blue;pointer-events: none;"/>
    <path d="M-50 0L567 0" stroke-width="5px" stroke="red" style="stroke:red;pointer-events: none;"/>
    <path d="M33 224Q33 321 81 388T197 455Q277 455 342 414L351 408V694H441V0H348V44L338 37Q278 -10 198 -10Q177 -10 168 -8Q99 11 62 90Q33 148 33 224ZM348 337Q307 378 263 378Q260 378 256 378T251 379Q239 379 223 374T182 355T142 305T126 220Q126 90 225 67Q231 66 250 66H255Q306 66 342 115L348 124V337Z" style="stroke:grey; fill:lightgrey; opacity:0.8;pointer-events: none;"/>
  </g>
  <g transform="translate(0,694) scale(1,-1)" fill="none" stroke="black" stroke-width="20">
    <path d="M 394.827 355.084 C 343.03 381.585 73.937 549.542 77.962 213.385 C 80.147 30.918 219.323 -35 394.827 103.012" style="fill: none; stroke: rgb(255, 0, 0); stroke-width: 1px;"/>
    <path d="M 394.827 682.892 C 399.708 568.844 398.914 446.678 398.502 332.057 C 398.214 251.773 398.55 67.198 399.542 2.035" style="fill: none; stroke: rgb(255, 0, 0); stroke-width: 1px;"/>
  </g>
</svg>