<?xml version="1.0" encoding="utf-8"?>
<svg width="8.84em" height="11.1em" style="margin: auto; margin-top: 10%" viewBox="-50 -25 442 505" xmlns="http://www.w3.org/2000/svg">
  <style>path { fill: none; stroke-width: 5px;}</style>
  <g transform="translate(0,455) scale(1,-1)">
    <path d="M0 -25L0 480" stroke-width="5px" stroke="blue" style="stroke:blue;pointer-events: none;"/>
    <path d="M342 -25L342 480" stroke-width="5px" stroke="blue" style="stroke:blue; fill:none;pointer-events: none;"/>
    <path d="M-25 455L367 455" stroke-width="5px" stroke="blue" style="stroke:blue;pointer-events: none;"/>
    <path d="M-25 0L367 0" stroke-width="5px" stroke="blue" style="stroke:blue;pointer-events: none;"/>
    <path d="M-50 0L392 0" stroke-width="5px" stroke="red" style="stroke:red;pointer-events: none;"/>
    <path d="M171 389Q237 455 320 455H327V373H317Q262 369 220 336T167 248Q165 239 164 119V0H74V450H159V377L171 389Z" style="stroke:grey; fill:lightgrey; opacity:0.8;pointer-events: none;"/>
  </g>
  <g transform="translate(0,455) scale(1,-1)" fill="none" stroke="black" stroke-width="20">
    <path style="stroke: rgb(255, 1, 1); stroke-width: 11px;" d="M 114.483 450.771 L 116.36 -1.371 C 116.36 -1.371 117.702 199.292 117.873 237.516 C 118.532 384.976 329.102 417.736 329.102 417.736"/>
  </g>
</svg>