<?xml version="1.0" encoding="utf-8"?>
<svg width="11.22em" height="10.88em" style="margin: auto; margin-top: 10%" viewBox="-50 -25 561 494" xmlns="http://www.w3.org/2000/svg">
  <style>path { fill: none; stroke-width: 5px;}</style>
  <g transform="translate(0,444) scale(1,-1)">
    <path d="M0 -25L0 469" stroke-width="5px" stroke="blue" style="stroke:blue;pointer-events: none;"/>
    <path d="M461 -25L461 469" stroke-width="5px" stroke="blue" style="stroke:blue; fill:none;pointer-events: none;"/>
    <path d="M-25 444L486 444" stroke-width="5px" stroke="blue" style="stroke:blue;pointer-events: none;"/>
    <path d="M-25 0L486 0" stroke-width="5px" stroke="blue" style="stroke:blue;pointer-events: none;"/>
    <path d="M-50 0L511 0" stroke-width="5px" stroke="red" style="stroke:red;pointer-events: none;"/>
    <path d="M178 0Q15 441 14 442Q14 444 60 444Q107 444 107 442Q108 441 136 364T196 194T232 67Q233 98 280 234T356 442Q356 444 401 444T446 442L282 0H178Z" style="stroke:grey; fill:lightgrey; opacity:0.8;pointer-events: none;"/>
  </g>
  <g transform="translate(0,444) scale(1,-1)" fill="none" stroke="black" stroke-width="20">
    <path style="stroke: rgb(255, 1, 1); stroke-width: 11px;" d="M 56.02 441.812 L 142.392 220.086 L 228.763 -1.639 L 314.341 221.848 L 399.918 445.335"/>
  </g>
</svg>