<?xml version="1.0" encoding="utf-8"?>
<svg width="9.22em" height="13.62em" style="margin: auto; margin-top: 10%; vertical-align:-0.2em" viewBox="-50 -25 461 631" xmlns="http://www.w3.org/2000/svg">
  <style>path { fill: none; stroke-width: 5px;}</style>
  <g transform="translate(0,571) scale(1,-1)">
    <path d="M0 -35L0 596" stroke-width="5px" stroke="blue" style="stroke:blue;pointer-events: none;"/>
    <path d="M361 -35L361 596" stroke-width="5px" stroke="blue" style="stroke:blue; fill:none;pointer-events: none;"/>
    <path d="M-25 571L386 571" stroke-width="5px" stroke="blue" style="stroke:blue;pointer-events: none;"/>
    <path d="M-25 -10L386 -10" stroke-width="5px" stroke="blue" style="stroke:blue;pointer-events: none;"/>
    <path d="M-50 0L411 0" stroke-width="5px" stroke="red" style="stroke:red;pointer-events: none;"/>
    <path d="M333 27Q333 24 314 16T257 -1T184 -10H172Q146 -10 128 14T105 58T99 91Q95 113 95 251V371H18V444H98V571H182V444H316V371H182V253Q183 128 189 104Q199 68 234 68Q277 72 314 98Q315 93 323 61T333 27Z" style="stroke:grey; fill:lightgrey; opacity:0.8;pointer-events: none;"/>
  </g>
  <g transform="translate(0,571) scale(1,-1)" fill="none" stroke="black" stroke-width="20">
    <path style="stroke: rgb(255, 1, 1); stroke-width: 11px;" d="M 139.458 568.316 C 139.458 568.316 135.012 199 135.729 162.37 C 138.159 38.199 152.446 33.236 183.968 24.831 C 221.901 14.716 320.71 58.628 320.71 58.628"/>
    <path style="stroke: rgb(255, 1, 1); stroke-width: 11px;" d="M 17.793 407.598 L 169.252 408.217 L 320.71 408.836"/>
  </g>
</svg>