<?xml version="1.0" encoding="utf-8"?>
<svg width="12.34em" height="11.08em" style="margin: auto; margin-top: 10%; vertical-align:-0.2em" viewBox="-50 -25 617 504" xmlns="http://www.w3.org/2000/svg">
  <style>path { fill: none; stroke-width: 5px;}</style>
  <g transform="translate(0,444) scale(1,-1)">
    <path d="M0 -35L0 469" stroke-width="5px" stroke="blue" style="stroke:blue;pointer-events: none;"/>
    <path d="M517 -35L517 469" stroke-width="5px" stroke="blue" style="stroke:blue; fill:none;pointer-events: none;"/>
    <path d="M-25 444L542 444" stroke-width="5px" stroke="blue" style="stroke:blue;pointer-events: none;"/>
    <path d="M-25 -10L542 -10" stroke-width="5px" stroke="blue" style="stroke:blue;pointer-events: none;"/>
    <path d="M-50 0L567 0" stroke-width="5px" stroke="red" style="stroke:red;pointer-events: none;"/>
    <path d="M353 39Q352 38 344 34T331 27T315 19T295 11T270 3T241 -3T207 -8T168 -10H162Q148 -10 137 -8T111 2T87 30T74 81Q73 89 73 268V444H166V268L167 92Q171 79 174 74T192 64T238 59Q317 59 344 116Q349 128 349 148T350 291V444H443V0H353V39Z" style="stroke:grey; fill:lightgrey; opacity:0.8;pointer-events: none;"/>
  </g>
  <g transform="translate(0,444) scale(1,-1)" fill="none" stroke="black" stroke-width="20">
    <path style="stroke: rgb(255, 1, 1); stroke-width: 11px;" d="M 116.282 438.572 C 116.282 438.572 116.148 122.497 116.438 98.977 C 117.599 4.733 198.865 20.618 248.274 27.839 C 293.029 34.38 395.6 90.484 397.697 129.787 C 399.236 158.632 396.899 442.544 396.899 442.544 L 402.678 -0.633"/>
  </g>
</svg>