<?xml version="1.0" encoding="utf-8"?>
<svg width="6.78em" height="15.6em" style="margin: auto; margin-top: 10%" viewBox="-50 -25 339 730" xmlns="http://www.w3.org/2000/svg">
  <style>path { fill: none; stroke-width: 5px;}</style>
  <g transform="translate(0,680) scale(1,-1)">
    <path d="M0 -25L0 705" stroke-width="5px" stroke="blue" style="stroke:blue;pointer-events: none;"/>
    <path d="M239 -25L239 705" stroke-width="5px" stroke="blue" style="stroke:blue; fill:none;pointer-events: none;"/>
    <path d="M-25 680L264 680" stroke-width="5px" stroke="blue" style="stroke:blue;pointer-events: none;"/>
    <path d="M-25 0L264 0" stroke-width="5px" stroke="blue" style="stroke:blue;pointer-events: none;"/>
    <path d="M-50 0L289 0" stroke-width="5px" stroke="red" style="stroke:red;pointer-events: none;"/>
    <path d="M67 576V680H171V576H67ZM74 0V444H164V0H74Z" style="stroke:grey; fill:lightgrey; opacity:0.8;pointer-events: none;"/>
  </g>
  <g transform="translate(0,680) scale(1,-1)" fill="none" stroke="black" stroke-width="20">
    <path d="M 118.776 447.694 C 120.598 389.07 118.818 243.339 119.092 213.672 C 119.169 205.281 117.169 50.228 115.237 3.446" style="stroke: rgb(203, 33, 33); fill: none; stroke-width: 29px;"/>
    <path d="M 118.268 618.76 C 118.268 626.035 118.283 634.025 118.283 640.783" style="stroke: rgb(203, 33, 33); fill: none; stroke-width: 29px;"/>
  </g>
</svg>