<?xml version="1.0" encoding="utf-8"?>
<svg width="12.34em" height="14.98em" style="margin: auto; margin-top: 10%; vertical-align:-3.88em" viewBox="-50 -25 617 699" xmlns="http://www.w3.org/2000/svg">
  <style>path { fill: none; stroke-width: 5px;}</style>
  <g transform="translate(0,455) scale(1,-1)">
    <path d="M0 -219L0 480" stroke-width="5px" stroke="blue" style="stroke:blue;pointer-events: none;"/>
    <path d="M517 -219L517 480" stroke-width="5px" stroke="blue" style="stroke:blue; fill:none;pointer-events: none;"/>
    <path d="M-25 455L542 455" stroke-width="5px" stroke="blue" style="stroke:blue;pointer-events: none;"/>
    <path d="M-25 -194L542 -194" stroke-width="5px" stroke="blue" style="stroke:blue;pointer-events: none;"/>
    <path d="M-50 0L567 0" stroke-width="5px" stroke="red" style="stroke:red;pointer-events: none;"/>
    <path d="M33 220Q33 325 87 389T206 454Q286 454 341 406L351 398V455H441V-194H348V41L338 35Q276 -8 198 -11Q171 -11 154 -5Q102 12 68 74T33 220ZM126 220Q126 160 161 113T251 65Q305 65 351 123V298L350 301Q349 304 347 308T342 319T336 331T327 343T315 355T300 365T283 373Q273 375 256 375Q208 375 167 332T126 220Z" style="stroke:grey; fill:lightgrey; opacity:0.8;pointer-events: none;"/>
  </g>
  <g transform="translate(0,455) scale(1,-1)" fill="none" stroke="black" stroke-width="20">
    <path style="stroke: rgb(255, 1, 1); stroke-width: 11px;" d="M 394.974 -199.052 L 392.928 451.31" transform="matrix(-1, 0, 0, -1, 787.902008, 252.257996)"/>
    <path d="M 75.515 132.098 C 209.499 -26.713 387.949 38.773 387.816 227.138 C 387.704 385.828 271.728 503.186 81.082 352.545" style="stroke: rgb(203, 33, 33); fill: none; stroke-width: 29px;" transform="matrix(-1, 0, 0, -1, 468.443253, 453.287338)"/>
  </g>
</svg>