<?xml version="1.0" encoding="utf-8"?>
<svg width="9.66em" height="11.4em" style="margin: auto; margin-top: 10%; vertical-align:-0.2em" viewBox="-50 -25 483 520" xmlns="http://www.w3.org/2000/svg">
  <style>path { fill: none; stroke-width: 5px;}</style>
  <g transform="translate(0,460) scale(1,-1)">
    <path d="M0 -35L0 485" stroke-width="5px" stroke="blue" style="stroke:blue;pointer-events: none;"/>
    <path d="M383 -35L383 485" stroke-width="5px" stroke="blue" style="stroke:blue; fill:none;pointer-events: none;"/>
    <path d="M-25 460L408 460" stroke-width="5px" stroke="blue" style="stroke:blue;pointer-events: none;"/>
    <path d="M-25 -10L408 -10" stroke-width="5px" stroke="blue" style="stroke:blue;pointer-events: none;"/>
    <path d="M-50 0L433 0" stroke-width="5px" stroke="red" style="stroke:red;pointer-events: none;"/>
    <path d="M33 326Q33 376 60 408T117 450T175 460H190Q245 460 272 454T345 429Q345 428 338 388L331 349Q278 386 188 386H183Q119 386 119 336Q119 307 142 295T210 276T278 256Q360 213 360 130Q360 108 354 88T332 43T281 5T195 -10Q152 -10 111 1T49 22T28 35Q29 36 32 56T39 95T43 115T51 110T72 99T102 85T143 73T193 68Q274 68 274 123Q274 152 248 167Q234 178 187 186T115 207Q66 229 46 273Q33 298 33 326Z" style="stroke:grey; fill:lightgrey; opacity:0.8;pointer-events: none;"/>
  </g>
  <g transform="translate(0,460) scale(1,-1)" fill="none" stroke="black" stroke-width="20">
    <path d="M 336.355 391.85 C 280.359 411.456 223.181 428.516 149.808 420.279 C 87.962 413.336 31.834 307.138 134.571 253.51 C 186.114 226.605 205.834 235.541 264.492 206.119 C 285.937 195.362 328.565 160.939 320.993 114.325 C 318.947 101.727 306.885 26.785 216.832 26.351 C 187.153 26.208 81.708 51.966 40.366 63.602" style="stroke: rgb(203, 33, 33); fill: none; stroke-width: 29px;"/>
  </g>
</svg>