<?xml version="1.0" encoding="utf-8"?>
<svg width="12.34em" height="11.1em" style="margin: auto; margin-top: 10%" viewBox="-50 -25 617 505" xmlns="http://www.w3.org/2000/svg">
  <style>path { fill: none; stroke-width: 5px;}</style>
  <g transform="translate(0,455) scale(1,-1)">
    <path d="M0 -25L0 480" stroke-width="5px" stroke="blue" style="stroke:blue;pointer-events: none;"/>
    <path d="M517 -25L517 480" stroke-width="5px" stroke="blue" style="stroke:blue; fill:none;pointer-events: none;"/>
    <path d="M-25 455L542 455" stroke-width="5px" stroke="blue" style="stroke:blue;pointer-events: none;"/>
    <path d="M-25 0L542 0" stroke-width="5px" stroke="blue" style="stroke:blue;pointer-events: none;"/>
    <path d="M-50 0L567 0" stroke-width="5px" stroke="red" style="stroke:red;pointer-events: none;"/>
    <path d="M160 392Q214 446 283 454Q285 454 292 454T303 455H306Q417 455 438 354Q442 331 443 164V0H350V157Q349 315 348 320Q334 378 259 378H253Q224 378 204 358Q180 334 173 301T165 209Q165 198 165 172T166 129V0H73V450H160V392Z" style="stroke:grey; fill:lightgrey; opacity:0.8;pointer-events: none;"/>
  </g>
  <g transform="translate(0,455) scale(1,-1)" fill="none" stroke="black" stroke-width="20">
    <path style="stroke: rgb(255, 1, 1); stroke-width: 11px;" d="M 117.309 450.948 L 121.445 2.689 C 121.445 2.689 119.811 227.787 119.176 258.069 C 117.095 357.383 223.542 413.308 275.154 413.984 C 378.606 415.339 400.326 353.723 400.185 305.425 C 400.128 285.972 398.426 1.931 398.426 1.931"/>
  </g>
</svg>