<?xml version="1.0" encoding="utf-8"?>
<svg width="17.88em" height="11.1em" style="margin: auto; margin-top: 10%" viewBox="-50 -25 894 505" xmlns="http://www.w3.org/2000/svg">
  <style>path { fill: none; stroke-width: 5px;}</style>
  <g transform="translate(0,455) scale(1,-1)">
    <path d="M0 -25L0 480" stroke-width="5px" stroke="blue" style="stroke:blue;pointer-events: none;"/>
    <path d="M794 -25L794 480" stroke-width="5px" stroke="blue" style="stroke:blue; fill:none;pointer-events: none;"/>
    <path d="M-25 455L819 455" stroke-width="5px" stroke="blue" style="stroke:blue;pointer-events: none;"/>
    <path d="M-25 0L819 0" stroke-width="5px" stroke="blue" style="stroke:blue;pointer-events: none;"/>
    <path d="M-50 0L844 0" stroke-width="5px" stroke="red" style="stroke:red;pointer-events: none;"/>
    <path d="M160 392Q223 455 304 455Q359 455 386 436T430 383L437 391Q495 455 584 455Q694 455 715 354Q719 331 720 164V0H627V157Q626 315 625 320Q611 378 536 378H530Q501 378 481 358Q457 334 450 301T442 209Q442 198 442 172T443 129V0H350V157Q349 315 348 320Q334 378 259 378H253Q224 378 204 358Q180 334 173 301T165 209Q165 198 165 172T166 129V0H73V450H160V392Z" style="stroke:grey; fill:lightgrey; opacity:0.8;pointer-events: none;"/>
  </g>
  <g transform="translate(0,455) scale(1,-1)" fill="none" stroke="black" stroke-width="20">
    <path style="stroke: rgb(255, 1, 1); stroke-width: 11px;" d="M 116.575 451.968 L 116.525 2.888 C 116.525 2.888 117.991 234.403 117.285 254.397 C 114.241 340.553 208.266 419.658 278.859 418.753 C 375.002 417.52 397.196 351.578 397.944 337.241 C 399.412 309.102 396.507 3.465 396.507 3.465 C 396.507 3.465 399.532 233.618 400.558 265.271 C 403.022 341.299 476.185 418.588 552.812 418.177 C 664.815 417.576 670.879 341.04 673.465 314.58 C 676.3 285.57 675.492 5.296 675.492 5.296"/>
  </g>
</svg>