<?xml version="1.0" encoding="utf-8"?>
<svg width="12.34em" height="15.88em" style="margin: auto; margin-top: 10%" viewBox="-50 -25 617 744" xmlns="http://www.w3.org/2000/svg">
  <style>path { fill: none; stroke-width: 5px;}</style>
  <g transform="translate(0,694) scale(1,-1)">
    <path d="M0 -25L0 719" stroke-width="5px" stroke="blue" style="stroke:blue;pointer-events: none;"/>
    <path d="M517 -25L517 719" stroke-width="5px" stroke="blue" style="stroke:blue; fill:none;pointer-events: none;"/>
    <path d="M-25 694L542 694" stroke-width="5px" stroke="blue" style="stroke:blue;pointer-events: none;"/>
    <path d="M-25 0L542 0" stroke-width="5px" stroke="blue" style="stroke:blue;pointer-events: none;"/>
    <path d="M-50 0L567 0" stroke-width="5px" stroke="red" style="stroke:red;pointer-events: none;"/>
    <path d="M163 395Q223 455 307 455Q417 455 438 354Q442 331 443 164V0H350V157Q349 315 348 320Q334 378 259 378H253Q224 378 204 358Q180 334 173 301T165 209Q165 198 165 172T166 129V0H73V694H163V395Z" style="stroke:grey; fill:lightgrey; opacity:0.8;pointer-events: none;"/>
  </g>
  <g transform="translate(0,694) scale(1,-1)" fill="none" stroke="black" stroke-width="20">
    <path d="M 123.04 690.689 C 123.04 555.114 125.139 522.811 123.964 332.294 C 123.761 299.297 118.999 16.428 118.999 8.148" style="stroke: rgb(203, 33, 33); fill: none; stroke-width: 29px;"/>
    <path d="M 124.321 261.921 C 137.346 288.949 150.844 412.471 279.898 417.222 C 363.831 420.312 394.259 345.436 394.259 296.062 C 394.259 230.283 395.382 70.47 395.382 5.166" style="stroke: rgb(203, 33, 33); fill: none; stroke-width: 29px;"/>
  </g>
</svg>