<?xml version="1.0" encoding="utf-8"?>
<svg width="11.22em" height="14.96em" style="margin: auto; margin-top: 10%; vertical-align:-4.08em" viewBox="-50 -25 561 698" xmlns="http://www.w3.org/2000/svg">
  <style>path { fill: none; stroke-width: 5px;}</style>
  <g transform="translate(0,444) scale(1,-1)">
    <path d="M0 -229L0 469" stroke-width="5px" stroke="blue" style="stroke:blue;pointer-events: none;"/>
    <path d="M461 -229L461 469" stroke-width="5px" stroke="blue" style="stroke:blue; fill:none;pointer-events: none;"/>
    <path d="M-25 444L486 444" stroke-width="5px" stroke="blue" style="stroke:blue;pointer-events: none;"/>
    <path d="M-25 -204L486 -204" stroke-width="5px" stroke="blue" style="stroke:blue;pointer-events: none;"/>
    <path d="M-50 0L511 0" stroke-width="5px" stroke="red" style="stroke:red;pointer-events: none;"/>
    <path d="M113 -204Q83 -204 63 -200L43 -197Q43 -196 40 -157T36 -117L48 -121Q79 -133 114 -133Q124 -133 130 -132T145 -121T163 -94Q169 -82 184 -42T200 1L188 29Q176 57 152 115T107 223T62 330T26 416L14 443Q14 444 61 444H109L122 411Q230 155 236 75L237 65V74Q245 161 348 424L356 444H401Q446 444 446 443L396 313Q345 183 293 49T236 -93Q191 -204 123 -204H113Z" style="stroke:grey; fill:lightgrey; opacity:0.8;pointer-events: none;"/>
  </g>
  <g transform="translate(0,444) scale(1,-1)" fill="none" stroke="black" stroke-width="20">
    <path style="stroke: rgb(255, 1, 1); stroke-width: 11px;" d="M 60.312 444.549 L 148.116 221.668 L 235.919 -1.213"/>
    <path style="stroke: rgb(255, 1, 1); stroke-width: 11px;" d="M 397.523 441.567 L 199.611 -92.784 C 199.611 -92.784 170.769 -159.912 136.715 -172.63 C 106.621 -183.869 38.107 -160.201 38.107 -160.201"/>
  </g>
</svg>