<?xml version="1.0" encoding="utf-8"?>
<svg width="11.22em" height="10.88em" style="margin: auto; margin-top: 10%" viewBox="-50 -25 561 494" xmlns="http://www.w3.org/2000/svg">
  <style>path { fill: none; stroke-width: 5px;}</style>
  <g transform="translate(0,444) scale(1,-1)">
    <path d="M0 -25L0 469" stroke-width="5px" stroke="blue" style="stroke:blue;pointer-events: none;"/>
    <path d="M461 -25L461 469" stroke-width="5px" stroke="blue" style="stroke:blue; fill:none;pointer-events: none;"/>
    <path d="M-25 444L486 444" stroke-width="5px" stroke="blue" style="stroke:blue;pointer-events: none;"/>
    <path d="M-25 0L486 0" stroke-width="5px" stroke="blue" style="stroke:blue;pointer-events: none;"/>
    <path d="M-50 0L511 0" stroke-width="5px" stroke="red" style="stroke:red;pointer-events: none;"/>
    <path d="M187 229L6 444H107L227 294L344 444H393L442 443Q439 437 299 268L267 229L460 0H359L294 88Q280 107 262 131T236 166L227 177L100 0H0Q1 1 47 58T140 171T187 229Z" style="stroke:grey; fill:lightgrey; opacity:0.8;pointer-events: none;"/>
  </g>
  <g transform="translate(0,444) scale(1,-1)" fill="none" stroke="black" stroke-width="20">
    <path style="stroke: rgb(255, 1, 1); stroke-width: 11px;" d="M 55.715 445.97 L 406.19 -2.157"/>
    <path style="stroke: rgb(255, 1, 1); stroke-width: 11px;" d="M 389.863 446.509 L 52.73 0.702"/>
  </g>
</svg>