<?xml version="1.0" encoding="utf-8"?>
<svg width="13em" height="15.5em" style="margin: auto; margin-top: 10%; vertical-align:-4.12em" viewBox="-50 -25 650 725" xmlns="http://www.w3.org/2000/svg">
  <style>path { fill: none; stroke-width: 5px;}</style>
  <g transform="translate(0,469) scale(1,-1)">
    <path d="M0 -231L0 494" stroke-width="5px" stroke="blue" style="stroke:blue;pointer-events: none;"/>
    <path d="M550 -231L550 494" stroke-width="5px" stroke="blue" style="stroke:blue; fill:none;pointer-events: none;"/>
    <path d="M-25 469L575 469" stroke-width="5px" stroke="blue" style="stroke:blue;pointer-events: none;"/>
    <path d="M-25 -206L575 -206" stroke-width="5px" stroke="blue" style="stroke:blue;pointer-events: none;"/>
    <path d="M-50 0L600 0" stroke-width="5px" stroke="red" style="stroke:red;pointer-events: none;"/>
    <path d="M63 108Q63 142 83 176L76 184Q35 227 35 300Q35 469 243 469Q330 469 385 437L397 443Q451 469 508 469Q515 468 517 466T522 456T528 425Q534 392 534 386Q532 379 523 377Q520 377 509 381T477 390T431 398L425 399Q453 362 453 297Q453 268 445 242T417 189T351 146T242 130Q169 130 119 153Q117 141 117 136Q117 95 155 83Q161 81 252 81Q354 80 362 79Q437 71 475 48T526 -24Q532 -42 532 -65Q532 -116 489 -156T341 -204Q323 -206 274 -206H256Q39 -206 18 -84Q17 -79 17 -68Q17 15 82 42L76 53Q63 79 63 108ZM310 300Q310 359 298 377T238 396Q217 396 204 390T186 368T179 339T178 300Q178 245 189 224T244 203T299 224T310 300ZM414 -66Q414 -55 411 -47T401 -32T387 -21T368 -14T346 -10T322 -7T297 -6T271 -6T246 -6H193Q163 -6 154 -10T140 -30Q135 -45 135 -62Q135 -134 274 -134Q414 -134 414 -66Z" style="stroke:grey; fill:lightgrey; opacity:0.8;pointer-events: none;"/>
  </g>
</svg>