<?xml version="1.0" encoding="utf-8"?>
<svg width="18.66em" height="21.98em" style="margin: auto; margin-top: 10%; vertical-align:-4.98em" viewBox="-50 -25 933 1049" xmlns="http://www.w3.org/2000/svg">
  <style>path { fill: none; stroke-width: 5px;}</style>
  <g transform="translate(0,750) scale(1,-1)">
    <path d="M0 -274L0 775" stroke-width="5px" stroke="blue" style="stroke:blue;pointer-events: none;"/>
    <path d="M833 -274L833 775" stroke-width="5px" stroke="blue" style="stroke:blue; fill:none;pointer-events: none;"/>
    <path d="M-25 750L858 750" stroke-width="5px" stroke="blue" style="stroke:blue;pointer-events: none;"/>
    <path d="M-25 -249L858 -249" stroke-width="5px" stroke="blue" style="stroke:blue;pointer-events: none;"/>
    <path d="M-50 0L883 0" stroke-width="5px" stroke="red" style="stroke:red;pointer-events: none;"/>
    <path d="M96 750Q103 750 109 748T120 744T127 737T133 730T137 723T139 718V395L140 73L142 60Q159 -43 237 -104T416 -166Q521 -166 597 -103T690 60L692 73L694 718Q708 749 735 749Q765 749 775 720Q777 714 777 398Q777 78 776 71Q766 -51 680 -140Q571 -249 416 -249H411Q261 -249 152 -140Q66 -51 56 71Q55 78 55 398Q55 714 57 720Q60 734 70 740Q80 750 96 750ZM223 276Q223 282 224 287T227 296T232 302T238 308T243 313T250 316L254 319H374V376V406Q374 438 382 454T418 470Q443 467 450 453T458 410V376V319H579Q580 319 583 317T589 313T594 308T600 302T604 295T608 287T609 276Q609 253 587 241Q577 235 513 235H458V178Q458 176 458 166T459 148Q459 84 415 84Q401 84 390 93T375 117Q374 120 374 178V235H319Q317 235 307 235T290 234Q223 234 223 276Z" style="stroke:grey; fill:lightgrey; opacity:0.8;pointer-events: none;"/>
  </g>
</svg>