<?xml version="1.0" encoding="utf-8"?>
<svg width="17.56em" height="23.04em" style="margin: auto; margin-top: 10%; vertical-align:-5.8em" viewBox="-50 -25 878 1102" xmlns="http://www.w3.org/2000/svg">
  <style>path { fill: none; stroke-width: 5px;}</style>
  <g transform="translate(0,762) scale(1,-1)">
    <path d="M0 -315L0 787" stroke-width="5px" stroke="blue" style="stroke:blue;pointer-events: none;"/>
    <path d="M778 -315L778 787" stroke-width="5px" stroke="blue" style="stroke:blue; fill:none;pointer-events: none;"/>
    <path d="M-25 762L803 762" stroke-width="5px" stroke="blue" style="stroke:blue;pointer-events: none;"/>
    <path d="M-25 -290L803 -290" stroke-width="5px" stroke="blue" style="stroke:blue;pointer-events: none;"/>
    <path d="M-50 0L828 0" stroke-width="5px" stroke="red" style="stroke:red;pointer-events: none;"/>
    <path d="M90 727Q83 734 83 743Q83 751 89 756T104 762Q111 760 396 641Q686 518 687 517Q694 512 694 502T687 487Q686 486 543 425T253 303T101 242Q83 244 83 262Q83 274 95 280Q96 280 130 294T232 338T361 392L621 502L357 613Q93 724 90 727ZM55 -23Q55 43 103 90T223 138Q265 138 316 114Q342 100 393 68L443 36Q502 0 554 0Q609 0 650 32T694 109Q694 138 708 138Q710 138 713 136T719 127T722 108Q722 37 673 -9T557 -56Q514 -56 468 -35T387 13T308 60T223 82Q167 82 127 50T83 -27Q81 -56 69 -56Q55 -56 55 -23ZM55 -257Q55 -191 103 -144T223 -96Q265 -96 316 -120Q342 -134 393 -166L443 -198Q502 -234 554 -234Q609 -234 650 -202T694 -125Q694 -96 708 -96Q710 -96 713 -98T719 -107T722 -126Q722 -197 673 -243T557 -290Q514 -290 468 -269T387 -221T308 -174T223 -152Q167 -152 127 -184T83 -261Q80 -290 69 -290Q55 -290 55 -257Z" style="stroke:grey; fill:lightgrey; opacity:0.8;pointer-events: none;"/>
  </g>
</svg>